Coordinates
nRows=12
nColumns=34

# SIMM Motion File Header:
name Coordinates
datacolumns 34
datarows 12
otherdata 1
range 0.58500000 0.61075000

Units are S.I. units (second, meters, Newtons, ...)
Angles are in degrees.

endheader
time	pelvis_tz	pelvis_tx	pelvis_ty	pelvis_tilt	pelvis_list	pelvis_rotation	hip_flexion_r	hip_adduction_r	hip_rotation_r	knee_r_tx	knee_r_ty	knee_angle_r	tib_pat_r_tx	tib_pat_r_ty	tib_pat_r_r1	ankle_angle_r	subtalar_angle_r	mtp_angle_r	hip_flexion_l	hip_adduction_l	hip_rotation_l	knee_l_tx	knee_l_ty	knee_angle_l	tib_pat_l_tx	tib_pat_l_ty	tib_pat_l_r1	ankle_angle_l	subtalar_angle_l	mtp_angle_l	lumbar_extension	lumbar_bending	lumbar_rotation
      0.58500000	     -0.26877054	      0.42771162	      0.88678447	     -0.65791194	      0.75270501	     -3.73010741	    -13.77301312	      2.21211073	     16.44304671	     -0.00179553	     -0.41459263	    -16.61767861	      0.04434959	     -0.02060256	     12.50000318	     20.69441209	      0.00000000	      0.00000000	     22.53903400	      1.58112206	      9.55289543	     -0.00387695	     -0.41362194	     -6.35084792	      0.04584497	     -0.02104577	      6.43969099	     -5.14030905	      0.00000000	      0.00000000	     -6.09698094	      2.47395251	      4.57541078
      0.58750000	     -0.26902726	      0.43082863	      0.88671519	     -0.67212126	      0.89254149	     -3.68453675	    -13.75367323	      2.10031050	     16.30111825	     -0.00170424	     -0.41463667	    -17.01959982	      0.04429483	     -0.02058891	     12.65080139	     20.45896046	      0.00000000	      0.00000000	     22.53482131	      1.78323189	      9.54842427	     -0.00382968	     -0.41364696	     -6.64831341	      0.04580089	     -0.02103105	      6.68585750	     -5.24940889	      0.00000000	      0.00000000	     -6.02117599	      2.27596839	      4.58710600
      0.59000000	     -0.26929558	      0.43396187	      0.88667025	     -0.68776699	      1.03243062	     -3.63335057	    -13.72719481	      1.98830625	     16.14997553	     -0.00161124	     -0.41468232	    -17.43035466	      0.04423863	     -0.02057505	     12.79948180	     20.17040520	      0.00000000	      0.00000000	     22.52880953	      1.98766028	      9.54666711	     -0.00378113	     -0.41367235	     -6.94832914	      0.04575568	     -0.02101601	      6.92926015	     -5.34813955	      0.00000000	      0.00000000	     -5.94171962	      2.07856510	      4.59397891
      0.59200000	     -0.26951827	      0.43648009	      0.88665162	     -0.70114780	      1.14475035	     -3.58866583	    -13.70095405	      1.89794987	     16.02248925	     -0.00153572	     -0.41472002	    -17.76524708	      0.04419258	     -0.02056379	     12.91673938	     19.90261817	      0.00000000	      0.00000000	     22.52224470	      2.15308148	      9.54688995	     -0.00374150	     -0.41369287	     -7.18935052	      0.04571891	     -0.02100382	      7.12129316	     -5.41838881	      0.00000000	      0.00000000	     -5.87576238	      1.92059721	      4.59619237
      0.59450000	     -0.26980607	      0.43964234	      0.88665073	     -0.71784111	      1.28608766	     -3.52866426	    -13.66297089	      1.78335013	     15.85542579	     -0.00144005	     -0.41476869	    -18.19168963	      0.04413358	     -0.02054948	     13.06103282	     19.53198737	      0.00000000	      0.00000000	     22.51003718	      2.36239460	      9.54867223	     -0.00369123	     -0.41371862	     -7.49007718	      0.04567255	     -0.02098852	      7.35656212	     -5.49537898	      0.00000000	      0.00000000	     -5.79169232	      1.72248559	      4.59517645
      0.59700000	     -0.27010351	      0.44282021	      0.88667490	     -0.73374461	      1.42858006	     -3.46461060	    -13.61985105	      1.66667073	     15.68063381	     -0.00134305	     -0.41481918	    -18.62725232	      0.04407283	     -0.02053487	     13.20276565	     19.13587066	      0.00000000	      0.00000000	     22.49190554	      2.57431206	      9.55176822	     -0.00364056	     -0.41374429	     -7.78789132	      0.04562622	     -0.02097331	      7.58486302	     -5.56357605	      0.00000000	      0.00000000	     -5.70683838	      1.52343422	      4.59031964
      0.59950000	     -0.27040998	      0.44601295	      0.88672306	     -0.74900477	      1.57198712	     -3.39683264	    -13.57117913	      1.54814327	     15.49871661	     -0.00124482	     -0.41487162	    -19.07237027	      0.04401013	     -0.02051990	     13.34189210	     18.72252532	      0.00000000	      0.00000000	     22.46766839	      2.78830992	      9.55630489	     -0.00358976	     -0.41376973	     -8.08126829	      0.04558030	     -0.02095831	      7.80525377	     -5.62610621	      0.00000000	      0.00000000	     -5.62121826	      1.32370246	      4.58182226
      0.60125000	     -0.27062968	      0.44825625	      0.88677033	     -0.75957979	      1.67268850	     -3.34724725	    -13.53338053	      1.46429469	     15.36726774	     -0.00117543	     -0.41490953	    -19.38970937	      0.04396500	     -0.02050919	     13.43765373	     18.42250171	      0.00000000	      0.00000000	     22.44732575	      2.93901254	      9.56053774	     -0.00355422	     -0.41378737	     -8.28360270	      0.04554851	     -0.02094797	      7.95467214	     -5.66756326	      0.00000000	      0.00000000	     -5.56061186	      1.18375634	      4.57374411
      0.60375000	     -0.27095071	      0.45147213	      0.88685623	     -0.77503804	      1.81622965	     -3.27343606	    -13.47323066	      1.34401931	     15.17372775	     -0.00107556	     -0.41496551	    -19.85142359	      0.04389862	     -0.02049351	     13.57204371	     17.96972253	      0.00000000	      0.00000000	     22.41400149	      3.15465163	      9.56850706	     -0.00350353	     -0.41381230	     -8.56811713	      0.04550374	     -0.02093348	      8.16125395	     -5.72250048	      0.00000000	      0.00000000	     -5.47268126	      0.98455950	      4.55922602
      0.60625000	     -0.27127963	      0.45470005	      0.88696253	     -0.79158049	      1.95806935	     -3.19632841	    -13.40463897	      1.22450738	     14.97368227	     -0.00097495	     -0.41502375	    -20.32339386	      0.04382981	     -0.02047734	     13.70356162	     17.47334101	      0.00000000	      0.00000000	     22.37645944	      3.36905970	      9.57906703	     -0.00345294	     -0.41383693	     -8.84751633	      0.04545977	     -0.02091934	      8.36015530	     -5.76518409	      0.00000000	      0.00000000	     -5.38264833	      0.78777136	      4.54141216
      0.60875000	     -0.27161568	      0.45793889	      0.88708824	     -0.80956172	      2.09738116	     -3.11630420	    -13.32681268	      1.10645755	     14.76743227	     -0.00087374	     -0.41508433	    -20.80567713	      0.04375844	     -0.02046065	     13.83206486	     16.92215106	      0.00000000	      0.00000000	     22.33512900	      3.58106297	      9.59209641	     -0.00340246	     -0.41386125	     -9.12190367	      0.04541667	     -0.02090557	      8.55170822	     -5.78979901	      0.00000000	      0.00000000	     -5.29032273	      0.59431958	      4.52062576
      0.61075000	     -0.27188910	      0.46053714	      0.88720240	     -0.82491322	      2.20711779	     -3.05053750	    -13.25780209	      1.01278934	     14.59819287	     -0.00079241	     -0.41513452	    -21.19879922	      0.04369950	     -0.02044692	     13.93257076	     16.44306531	      0.00000000	      0.00000000	     22.29924404	      3.74884482	      9.60394624	     -0.00336224	     -0.41388045	     -9.33749088	      0.04538293	     -0.02089485	      8.69961249	     -5.79764044	      0.00000000	      0.00000000	     -5.21498702	      0.44179007	      4.50210463
